<svg viewBox="0 0 80 32" fill="#FC4F60" xmlns="http://www.w3.org/2000/svg">
  <path d="M6.99671 23.2949C6.99671 26.0255 8.02129 26.7945 9.55691 26.7945C11.2629 26.7945 12.3726 25.77 12.3726 23.2523C12.3726 23.082 12.4578 23.0394 12.6281 23.0394L18.8583 24.4899C19.0286 24.5324 19.0712 24.6602 19.0712 24.788C18.3873 30.3768 13.6953 31.6569 9.55691 31.6569C4.73712 31.6569 0 29.9509 0 23.2949V8.7028C0 2.04678 4.73712 0.34082 9.55691 0.34082C13.6953 0.34082 18.3898 1.62092 19.0712 7.20977C19.0712 7.33753 19.0286 7.46529 18.8583 7.50787L12.6281 8.95832C12.4578 8.95832 12.3726 8.91573 12.3726 8.74539C12.3726 6.22777 11.2629 5.20319 9.55691 5.20319C8.02129 5.20319 6.99671 5.97226 6.99671 8.7028V23.2949Z"/>
  <path d="M30.3067 13.738C30.3067 13.5677 30.3919 13.4825 30.5622 13.4825H39.9062C40.0766 13.4825 40.1617 13.5677 40.1617 13.738V27.8191C40.1617 28.032 40.1191 28.0746 40.0766 28.1598C38.0274 30.6348 34.1044 31.6594 30.7752 31.6594C25.9529 31.6594 21.2183 29.9534 21.2183 23.2974V8.7028C21.2208 2.04678 25.9554 0.34082 30.8203 0.34082C34.9587 0.34082 39.6532 1.62092 40.3346 7.20977C40.3346 7.33753 40.292 7.46529 40.1216 7.50787L33.8915 8.95832C33.7211 8.95832 33.636 8.91573 33.636 8.74539C33.636 6.22777 32.5262 5.20319 30.8203 5.20319C29.2421 5.20319 28.2175 5.97225 28.2175 8.7028V23.2949C28.2175 26.0255 29.2421 26.7945 30.7777 26.7945C31.7597 26.7945 32.4836 26.5816 33.1675 26.1106V18.3449H30.5647C30.3944 18.3449 30.3092 18.2597 30.3092 18.1319V13.738H30.3067Z"/>
  <path d="M52.1661 1.06738C56.0064 1.06738 60.1448 2.94369 60.1448 9.38678C60.1448 13.2697 58.5666 15.4892 56.4749 16.6816L61.4249 30.5047C61.4675 30.6324 61.4675 30.7176 61.4675 30.7602C61.4675 30.8879 61.3823 30.9305 61.212 30.9305H54.556C54.4708 30.9305 54.3856 30.8879 54.343 30.7602L50.3324 17.7037H49.4782V30.675C49.4782 30.8453 49.393 30.9305 49.2226 30.9305H42.737C42.5666 30.9305 42.4814 30.8453 42.4814 30.675V1.3229C42.4814 1.15256 42.5666 1.06738 42.737 1.06738H52.1661ZM53.1481 9.38678C53.1481 6.69882 52.1235 5.92976 50.5879 5.92976H49.4782V12.8413H50.5879C52.1235 12.8413 53.1481 12.0747 53.1481 9.38678Z"/>
  <path d="M80 30.6775C80 30.8479 79.9148 30.933 79.7444 30.933H63.8722C63.7019 30.933 63.6167 30.8479 63.6167 30.6775V1.3229C63.6167 1.15256 63.7019 1.06738 63.8722 1.06738H79.7444C79.9148 1.06738 80 1.15256 80 1.3229V5.67424C80 5.84458 79.9148 5.92976 79.7444 5.92976H70.6134V12.1599H78.5495C78.7199 12.1599 78.805 12.2451 78.805 12.4154V16.7668C78.805 16.9371 78.7199 17.0223 78.5495 17.0223H70.6134V26.0681H79.7444C79.9148 26.0681 80 26.1533 80 26.3237V30.6775Z"/>
</svg>
