<svg width="880" height="1160" viewBox="0 0 880 1160" fill="none" xmlns="http://www.w3.org/2000/svg">
<path fill-rule="evenodd" clip-rule="evenodd" d="M471.515 218.375C471.515 76.5245 536.791 0 675.197 0C813.415 0 880 76.5245 880 218.375V1160H0V218.375C0 76.5245 66.7715 0 204.99 0C343.209 0 408.672 76.5245 408.672 218.375V690.027H471.515V218.375ZM208.918 149.316C176.187 149.316 157.296 171.9 157.296 209.603V690.027H262.971V209.603C262.971 171.9 242.772 149.316 208.918 149.316ZM101.56 940.692C101.56 1003.78 152.995 1055.11 216.213 1055.11C279.43 1055.11 330.865 1003.78 330.865 940.692C330.865 877.606 279.43 826.278 216.213 826.278C152.995 826.278 101.56 877.606 101.56 940.692ZM617.216 485.464H722.703H722.891V209.603C722.891 171.9 704 149.316 671.269 149.316C637.415 149.316 617.216 171.9 617.216 209.603V485.464ZM167.838 944.661C167.838 918.328 189.284 896.851 215.579 896.851C242.06 896.851 263.506 918.328 263.319 944.661C263.319 970.995 241.873 992.472 215.579 992.472C189.284 992.472 167.838 970.995 167.838 944.661Z" fill="white"/>
</svg>
