<svg width="1920" height="1422" viewBox="0 0 1920 1422" fill="none" xmlns="http://www.w3.org/2000/svg">
<path fill-rule="evenodd" clip-rule="evenodd" d="M1098.21 711C1098.21 1103.67 779.837 1422 387.101 1422C-5.63449 1422 -324.01 1103.67 -324.01 711C-324.01 318.326 -5.63449 0 387.101 0C779.837 0 1098.21 318.326 1098.21 711ZM917.613 729.115C917.613 881.682 793.913 1005.36 641.321 1005.36C488.73 1005.36 365.03 881.682 365.03 729.115C365.03 576.547 488.73 452.866 641.321 452.866C793.913 452.866 917.613 576.547 917.613 729.115ZM2244.01 729.115C2244.01 995.171 2027.51 1211.64 1761.41 1211.64C1496.1 1211.64 1279.6 995.171 1278.81 729.114C1278.81 463.058 1495.31 246.591 1761.41 246.591C2027.51 246.591 2244.01 463.058 2244.01 729.115ZM1962.95 729.115C1962.95 618.126 1872.42 527.604 1761.41 527.604C1650.41 527.604 1559.87 618.126 1559.87 729.114C1559.87 840.103 1650.41 930.625 1761.41 930.625C1872.42 930.625 1962.95 840.103 1962.95 729.115Z" fill="white"/>
</svg>
