<svg width="881" height="1160" viewBox="0 0 881 1160" fill="none" xmlns="http://www.w3.org/2000/svg">
<g clip-path="url(#footer-character-clip)">
<path fill-rule="evenodd" clip-rule="evenodd" d="M149.362 648.58C125.132 639.48 104.537 632.2 59.7128 632.2V777.8H880.461V1160H59.7128H16.0998H0.350586V68H16.0998H59.7128H880.461V182.053C859.26 171.74 835.636 166.28 810.801 166.28C722.363 166.28 650.886 237.26 649.675 325.833C648.463 237.867 576.986 166.28 488.549 166.28C399.505 166.28 327.423 238.473 327.423 327.653C327.423 376.793 349.229 420.473 383.756 450.2H59.7128V559.4C115.059 559.4 145.223 569.717 171.345 578.652C172.097 578.909 172.846 579.165 173.591 579.42C197.821 588.52 218.416 595.8 263.241 595.8C306.303 595.8 327.004 588.521 350.047 580.418C350.99 580.087 351.937 579.754 352.89 579.42C353.871 579.085 354.857 578.747 355.849 578.408C381.767 569.53 411.343 559.4 466.768 559.4C523.707 559.4 553.994 569.713 580.647 579.42C604.876 588.52 625.471 595.8 670.296 595.8C713.358 595.8 734.059 588.521 757.103 580.418C758.046 580.087 758.993 579.754 759.945 579.42C760.927 579.085 761.913 578.747 762.904 578.408C788.822 569.53 818.398 559.4 873.824 559.4V632.2C830.761 632.2 810.06 639.479 787.016 647.582C786.073 647.913 785.127 648.246 784.174 648.58C783.731 648.731 783.287 648.883 782.842 649.036L781.215 649.592C755.297 658.47 725.721 668.6 670.296 668.6C613.357 668.6 583.07 658.287 556.417 648.58C532.188 639.48 511.593 632.2 466.768 632.2C423.705 632.2 403.005 639.479 379.961 647.582L379.909 647.6C378.984 647.925 378.054 648.252 377.119 648.58C376.629 648.747 376.139 648.915 375.646 649.083L375.078 649.278L374.872 649.348C348.75 658.283 318.586 668.6 263.241 668.6C207.895 668.6 177.731 658.283 151.609 649.348L151.422 649.284C150.732 649.048 150.046 648.813 149.362 648.58ZM418.283 257.886H557.603V397.419H418.283V257.886ZM705.403 450.2C671.481 421.08 649.675 378.007 649.069 329.474C648.463 378.007 626.657 421.08 592.736 450.2H705.403ZM740.536 257.886H879.855V397.419H740.536V257.886Z" fill="white"/>
</g>
<defs>
<clipPath id="footer-character-clip">
<rect width="880" height="1160" fill="white" transform="translate(0.460693)"/>
</clipPath>
</defs>
</svg>
