<svg width="881" height="1160" viewBox="0 0 881 1160" fill="none" xmlns="http://www.w3.org/2000/svg">
<path fill-rule="evenodd" clip-rule="evenodd" d="M471.83 218.366C471.83 76.4835 537.344 0 675.59 0C813.836 0 880.461 76.4835 880.461 218.366V1160H0.460693V218.366C0.460693 76.4835 67.0853 0 205.331 0C343.577 0 409.092 76.4835 409.092 218.366V690.014H471.83V218.366ZM138.116 149.087C105.358 149.087 86.4815 171.811 86.4815 209.498V690.014H191.97V209.498C191.97 171.811 171.983 149.087 138.116 149.087ZM559.552 690.014H665.041V209.498C665.041 171.811 646.164 149.087 613.407 149.087C579.54 149.087 559.552 171.811 559.552 209.498V690.014ZM473.058 886.168C473.058 949.384 441.394 987.499 386.449 987.499C329.641 987.499 296.114 949.384 296.114 886.168L296.115 816.151H473.058L473.058 886.168Z" fill="white"/>
</svg>
