<svg width="881" height="1160" viewBox="0 0 881 1160" fill="none" xmlns="http://www.w3.org/2000/svg">
<path fill-rule="evenodd" clip-rule="evenodd" d="M880.461 218.366C880.461 76.4838 813.836 0 675.59 0C537.344 0 471.83 76.4838 471.83 218.366V690.014H409.092V218.366C409.092 76.4838 343.577 0 205.331 0C67.0853 0 0.460693 76.4838 0.460693 218.366V1160H880.461V218.366ZM263.073 583.603V693.34H157.584V583.603C157.584 545.915 176.461 523.192 209.218 523.192C243.085 523.192 263.073 545.915 263.073 583.603ZM617.849 583.603C617.849 545.915 637.836 523.192 671.704 523.192C703.905 523.192 722.782 545.915 723.338 583.603V693.34H617.849V583.603ZM325.811 819.703C325.811 883.109 377.517 933.875 440.183 933.875C502.997 933.875 554.555 882.407 554.555 819.703H487.931C487.931 845.676 466.201 867.367 440.183 867.367C414.016 867.367 392.435 846.082 392.435 819.703H325.811Z" fill="white"/>
</svg>
