<svg width="881" height="1160" viewBox="0 0 881 1160" fill="none" xmlns="http://www.w3.org/2000/svg">
<path d="M675.59 0C537.344 0 471.83 76.4835 471.83 218.366V690.014H409.092V218.366C409.092 76.4835 343.577 0 205.331 0C67.0853 0 0.460693 76.4835 0.460693 218.366V1160H880.461V218.366C880.461 76.4835 813.836 0 675.59 0ZM231.978 209.498C231.978 171.811 250.855 149.087 283.612 149.087C317.48 149.087 337.467 171.811 337.467 209.498V690.014H231.978V209.498ZM526.795 977.105C431.3 977.105 353.016 932.212 288.057 840.21L342.467 801.968C394.656 876.235 453.508 910.597 526.795 910.597C624.511 910.597 681.697 852.403 712.789 803.077L768.864 838.547C729.445 901.729 654.492 977.105 526.795 977.105ZM811.615 690.014H706.126V209.498C706.126 171.811 726.114 149.087 759.981 149.087C792.738 149.087 811.615 171.811 811.615 209.498V690.014Z" fill="white"/>
</svg>
