<svg width="881" height="1160" viewBox="0 0 881 1160" fill="none" xmlns="http://www.w3.org/2000/svg">
<g clip-path="url(#footer-character-clip)">
<path fill-rule="evenodd" clip-rule="evenodd" d="M59.8536 660.59L739.714 660.59V570.216L59.8536 570.216V450.121L382.387 450.121C347.807 420.4 325.967 376.729 325.967 327.6C325.967 238.438 398.161 166.26 487.341 166.26C573.487 166.26 643.861 233.586 648.714 318.501C653.567 233.586 723.94 166.26 810.087 166.26C835.567 166.26 859.227 172.325 880.461 182.636V68.0001L59.8536 68H16.1736H0.400269V1159.77H16.1736H59.8536H880.461V777.653L59.8536 777.653V660.59ZM487.34 256.635C526.773 256.635 558.32 288.782 558.32 327.601C558.32 366.419 526.167 398.566 487.34 398.566C447.907 398.566 416.36 367.026 416.36 327.601C416.36 288.175 448.514 256.635 487.34 256.635ZM704.526 450.12H592.293C624.446 422.22 645.68 382.188 648.106 336.697C651.14 382.188 672.373 422.22 704.526 450.12ZM809.48 256.635C845.88 256.635 876.214 284.536 879.854 320.322V334.879C876.214 370.665 846.487 398.566 809.48 398.566C770.047 398.566 738.5 367.026 738.5 327.601C738.5 288.175 770.654 256.635 809.48 256.635Z" fill="white"/>
</g>
<defs>
<clipPath id="footer-character-clip">
<rect width="880" height="1160" fill="white" transform="translate(0.460693)"/>
</clipPath>
</defs>
</svg>
