<svg width="881" height="1160" viewBox="0 0 881 1160" fill="none" xmlns="http://www.w3.org/2000/svg">
<path fill-rule="evenodd" clip-rule="evenodd" d="M471.976 218.375C471.976 76.5245 537.252 0 675.657 0C813.876 0 880.461 76.5245 880.461 218.375V1160H0.460938V218.375C0.460938 76.5245 67.2324 0 205.451 0C343.67 0 409.133 76.5245 409.133 218.375V690.027H471.976V218.375ZM209.379 149.316C176.648 149.316 157.757 171.9 157.757 209.603V690.027H263.432V209.603C263.432 171.9 243.232 149.316 209.379 149.316ZM102.021 940.692C102.021 1003.78 153.456 1055.11 216.673 1055.11C279.891 1055.11 331.326 1003.78 331.326 940.692C331.326 877.606 279.891 826.278 216.673 826.278C153.456 826.278 102.021 877.606 102.021 940.692ZM617.677 485.464H723.164H723.351V209.603C723.351 171.9 704.461 149.316 671.73 149.316C637.876 149.316 617.677 171.9 617.677 209.603V485.464ZM168.299 944.661C168.299 918.328 189.745 896.851 216.04 896.851C242.521 896.851 263.967 918.328 263.78 944.661C263.78 970.995 242.334 992.472 216.04 992.472C189.745 992.472 168.299 970.995 168.299 944.661Z" fill="white"/>
</svg>
