<svg width="264" height="257" viewBox="0 0 264 257" xmlns="http://www.w3.org/2000/svg">
<path d="M113.699 56.4597C111.031 49.1301 102.828 45.305 95.4983 47.9728C88.1687 50.6405 84.3436 58.8435 87.0114 66.1731C89.6791 73.5027 97.8821 77.3278 105.212 74.6601C112.541 71.9923 116.366 63.7893 113.699 56.4597ZM130.801 50.235C136.923 67.0555 128.257 85.6403 111.436 91.7625C94.616 97.8846 75.9969 89.1244 69.909 72.3979C63.7868 55.5774 72.4531 36.9925 89.2736 30.8704C106.094 24.7482 124.679 33.4145 130.801 50.235ZM192.351 27.8326C189.683 20.503 181.48 16.6779 174.151 19.3457C166.821 22.0135 162.996 30.2164 165.664 37.546C168.331 44.8756 176.534 48.7007 183.864 46.033C191.194 43.3652 195.019 35.1623 192.351 27.8326ZM209.453 21.6079C215.575 38.4284 206.909 57.0132 190.089 63.1354C173.268 69.2575 154.683 60.5913 148.561 43.7708C142.439 26.9503 151.105 8.36545 167.926 2.24329C184.746 -3.87887 203.331 4.78739 209.453 21.6079ZM234.679 67.2317L238.886 78.7899L240.22 82.4547L276.816 183.002L84.8366 252.877L73.8421 256.878L32.3893 142.987L0 53.9985L10.9944 49.9969L45.7779 145.564C55.1997 139.58 60.1096 130.557 75.9904 124.777C95.2541 117.765 105.252 124.768 119.817 119.467C134.383 114.165 137.54 102.374 156.804 95.363C176.068 88.3516 186.066 95.3544 200.631 90.0531C214.385 85.1535 217.978 74.268 234.679 67.2317Z"/>
</svg>
