<svg width="40" height="40" viewBox="0 0 40 40" fill="none" xmlns="http://www.w3.org/2000/svg">
<path d="M17.4877 0.460788C17.4877 7.48218 19.4844 12.2216 25.8256 16.237L29.797 18.7603L29.7093 18.7603L-9.28417e-07 18.7603L-8.19079e-07 21.2617L29.7093 21.2617L29.797 21.2617L25.8256 23.763C19.4844 27.7564 17.4877 32.4959 17.4877 39.5392L17.4877 40L24.6846 40L24.6846 39.5392C24.6846 31.8815 27.4931 28.678 34.339 24.3335L40 20.6912L40 19.3308L34.339 15.6665C27.537 11.2562 24.6846 8.11849 24.6846 0.460788L24.6846 6.5504e-06L17.4877 6.86498e-06L17.4877 0.460788Z" fill="#2B2C2A"/>
</svg>
