<svg width="84" height="84" viewBox="0 0 84 84" xmlns="http://www.w3.org/2000/svg">
<path d="M77.64 47.4199C77.64 42.0199 78.48 35.6599 79.08 31.8199L84 1.9399L81.96 -0.100098L52.08 4.8199C48.24 5.4199 41.88 6.2599 36.48 6.2599C29.88 6.2599 23.52 4.9399 18.84 -0.100098L7.44 11.2999C13.8 18.0199 20.64 20.8999 30 20.8999C35.4 20.8999 42.6 19.4599 48.48 18.3799L65.136 15.4039L0 80.5399L3.36 83.8999L68.496 18.7639L65.52 35.4199C64.44 41.2999 63 48.4999 63 53.8999C63 63.2599 65.88 70.0999 72.6 76.4599L84 65.0599C78.96 60.3799 77.64 54.0199 77.64 47.4199Z" />
</svg>
