<svg width="18" height="18" viewBox="0 0 18 18" fill="none" xmlns="http://www.w3.org/2000/svg">
<path d="M17.7188 9.01953C17.7188 11.1758 17.0156 13.0742 15.6094 14.7148C14.2031 16.332 12.457 17.3047 10.3711 17.6328V11.5508H12.4102L12.7969 9.01953H10.3711V7.36719C10.3711 6.47656 10.8398 6.03125 11.7773 6.03125H12.8672V3.88672C12.2109 3.76953 11.5664 3.71094 10.9336 3.71094C10.2539 3.71094 9.66797 3.83984 9.17578 4.09766C8.70703 4.35547 8.33203 4.74219 8.05078 5.25781C7.76953 5.77344 7.62891 6.38281 7.62891 7.08594V9.01953H5.41406V11.5508H7.62891V17.6328C5.54297 17.3047 3.79688 16.332 2.39062 14.7148C0.984375 13.0742 0.28125 11.1758 0.28125 9.01953C0.28125 6.60547 1.125 4.55469 2.8125 2.86719C4.52344 1.15625 6.58594 0.300781 9 0.300781C11.4141 0.300781 13.4648 1.15625 15.1523 2.86719C16.8633 4.55469 17.7188 6.60547 17.7188 9.01953Z" fill="#2B2C2A"/>
</svg>
