<svg width="16" height="16" viewBox="0 0 16 16" fill="none" xmlns="http://www.w3.org/2000/svg">
<path d="M5.02734 5.17188C5.82422 4.375 6.78516 3.97656 7.91016 3.97656C9.03516 3.97656 9.98438 4.375 10.7578 5.17188C11.5547 5.94531 11.9531 6.89453 11.9531 8.01953C11.9531 9.14453 11.5547 10.1055 10.7578 10.9023C9.98438 11.6758 9.03516 12.0625 7.91016 12.0625C6.78516 12.0625 5.82422 11.6758 5.02734 10.9023C4.25391 10.1055 3.86719 9.14453 3.86719 8.01953C3.86719 6.89453 4.25391 5.94531 5.02734 5.17188ZM6.04688 9.88281C6.5625 10.3984 7.18359 10.6562 7.91016 10.6562C8.63672 10.6562 9.25781 10.3984 9.77344 9.88281C10.2891 9.36719 10.5469 8.74609 10.5469 8.01953C10.5469 7.29297 10.2891 6.67188 9.77344 6.15625C9.25781 5.64062 8.63672 5.38281 7.91016 5.38281C7.18359 5.38281 6.5625 5.64062 6.04688 6.15625C5.53125 6.67188 5.27344 7.29297 5.27344 8.01953C5.27344 8.74609 5.53125 9.36719 6.04688 9.88281ZM12.7617 3.16797C12.9492 3.33203 13.043 3.54297 13.043 3.80078C13.043 4.05859 12.9492 4.28125 12.7617 4.46875C12.5977 4.65625 12.3867 4.75 12.1289 4.75C11.8711 4.75 11.6484 4.65625 11.4609 4.46875C11.2734 4.28125 11.1797 4.05859 11.1797 3.80078C11.1797 3.54297 11.2734 3.33203 11.4609 3.16797C11.6484 2.98047 11.8711 2.88672 12.1289 2.88672C12.3867 2.88672 12.5977 2.98047 12.7617 3.16797ZM15.75 4.78516C15.7734 5.41797 15.7852 6.49609 15.7852 8.01953C15.7852 9.54297 15.7734 10.6211 15.75 11.2539C15.6797 12.6836 15.2461 13.7969 14.4492 14.5938C13.6758 15.3672 12.5742 15.7773 11.1445 15.8242C10.5117 15.8711 9.43359 15.8945 7.91016 15.8945C6.38672 15.8945 5.30859 15.8711 4.67578 15.8242C3.24609 15.7539 2.14453 15.332 1.37109 14.5586C1.06641 14.2773 0.820312 13.9492 0.632812 13.5742C0.445312 13.1992 0.304688 12.8359 0.210938 12.4844C0.140625 12.1328 0.105469 11.7227 0.105469 11.2539C0.0585937 10.6211 0.0351562 9.54297 0.0351562 8.01953C0.0351562 6.49609 0.0585937 5.40625 0.105469 4.75C0.175781 3.34375 0.597656 2.25391 1.37109 1.48047C2.14453 0.683594 3.24609 0.25 4.67578 0.179688C5.30859 0.15625 6.38672 0.144531 7.91016 0.144531C9.43359 0.144531 10.5117 0.15625 11.1445 0.179688C12.5742 0.25 13.6758 0.683594 14.4492 1.48047C15.2461 2.25391 15.6797 3.35547 15.75 4.78516ZM14.0625 12.6602C14.1328 12.4727 14.1914 12.2383 14.2383 11.957C14.2852 11.6523 14.3203 11.3008 14.3438 10.9023C14.3672 10.4805 14.3789 10.1406 14.3789 9.88281C14.3789 9.625 14.3789 9.26172 14.3789 8.79297C14.3789 8.32422 14.3789 8.06641 14.3789 8.01953C14.3789 7.94922 14.3789 7.69141 14.3789 7.24609C14.3789 6.77734 14.3789 6.41406 14.3789 6.15625C14.3789 5.89844 14.3672 5.57031 14.3438 5.17188C14.3203 4.75 14.2852 4.39844 14.2383 4.11719C14.1914 3.8125 14.1328 3.56641 14.0625 3.37891C13.7812 2.65234 13.2773 2.14844 12.5508 1.86719C12.3633 1.79688 12.1172 1.73828 11.8125 1.69141C11.5312 1.64453 11.1797 1.60938 10.7578 1.58594C10.3594 1.5625 10.0312 1.55078 9.77344 1.55078C9.53906 1.55078 9.17578 1.55078 8.68359 1.55078C8.21484 1.55078 7.95703 1.55078 7.91016 1.55078C7.86328 1.55078 7.60547 1.55078 7.13672 1.55078C6.66797 1.55078 6.30469 1.55078 6.04688 1.55078C5.78906 1.55078 5.44922 1.5625 5.02734 1.58594C4.62891 1.60938 4.27734 1.64453 3.97266 1.69141C3.69141 1.73828 3.45703 1.79688 3.26953 1.86719C2.54297 2.14844 2.03906 2.65234 1.75781 3.37891C1.6875 3.56641 1.62891 3.8125 1.58203 4.11719C1.53516 4.39844 1.5 4.75 1.47656 5.17188C1.45312 5.57031 1.44141 5.89844 1.44141 6.15625C1.44141 6.39062 1.44141 6.75391 1.44141 7.24609C1.44141 7.71484 1.44141 7.97266 1.44141 8.01953C1.44141 8.11328 1.44141 8.33594 1.44141 8.6875C1.44141 9.01562 1.44141 9.29688 1.44141 9.53125C1.44141 9.74219 1.44141 10.0234 1.44141 10.375C1.46484 10.7266 1.48828 11.0312 1.51172 11.2891C1.53516 11.5234 1.57031 11.7695 1.61719 12.0273C1.66406 12.2852 1.71094 12.4961 1.75781 12.6602C2.0625 13.3867 2.56641 13.8906 3.26953 14.1719C3.45703 14.2422 3.69141 14.3008 3.97266 14.3477C4.27734 14.3945 4.62891 14.4297 5.02734 14.4531C5.44922 14.4766 5.77734 14.4883 6.01172 14.4883C6.26953 14.4883 6.63281 14.4883 7.10156 14.4883C7.59375 14.4883 7.86328 14.4883 7.91016 14.4883C7.98047 14.4883 8.23828 14.4883 8.68359 14.4883C9.15234 14.4883 9.51562 14.4883 9.77344 14.4883C10.0312 14.4883 10.3594 14.4766 10.7578 14.4531C11.1797 14.4297 11.5312 14.3945 11.8125 14.3477C12.1172 14.3008 12.3633 14.2422 12.5508 14.1719C13.2773 13.8672 13.7812 13.3633 14.0625 12.6602Z" fill="#2B2C2A"/>
</svg>
