<svg width="240" height="75" viewBox="0 0 240 75" xmlns="http://www.w3.org/2000/svg">
<title>Lubeznik Center for the Arts</title>
<path fill-rule="evenodd" clip-rule="evenodd" d="M239.28 0V4.78125L213.08 13.5904V15.3917L239.28 24.4688V29.25L213.08 20.019V28.567H211.28V0.441964H213.08V8.96317L239.28 0ZM120.363 4.78131H144.77L120.08 24.509V28.567H148.08V24.1876H123.293L148.08 4.37953V0.401851H120.363V4.78131ZM0.883321 0.441905H2.68332V24.1071H27.2833V28.5669H2.68332H0.883321V24.1071V0.441905ZM51.6633 22.7611C53.9433 21.4888 55.0833 19.3124 55.0833 16.2321V0.441905H56.8833V17.9196C56.8789 21.5892 55.6567 24.3682 53.2167 26.2566C50.7767 28.145 47.3167 29.0892 42.8367 29.0892C38.3611 29.0892 34.9167 28.145 32.5033 26.2566C30.09 24.3682 28.8833 21.5892 28.8833 17.9196V0.441905H30.6833V16.2321C30.6833 19.3124 31.8167 21.4888 34.0833 22.7611C36.35 24.0334 39.27 24.6696 42.8433 24.6696C46.4433 24.6696 49.3833 24.0334 51.6633 22.7611ZM85.3333 16.0111C83.8468 15.1738 82.1936 14.6786 80.4933 14.5613C81.4312 14.4672 82.3564 14.273 83.2533 13.9821C84.528 13.5861 85.6516 12.808 86.4733 11.7522C87.26 10.7209 87.6533 9.37494 87.6533 7.71423C87.6533 5.48208 86.9133 3.71423 85.4333 2.41066C83.9533 1.10708 81.8422 0.450834 79.1 0.441905H59.3V28.5669H79.1C81.9533 28.5669 84.1333 27.9575 85.64 26.7388C87.1467 25.52 87.9 23.6785 87.9 21.2142C87.8889 18.7767 87.0333 17.0424 85.3333 16.0111ZM61.0833 4.82137H80.9233C82.39 4.82137 83.5567 5.16289 84.4233 5.84592C84.8492 6.17971 85.1894 6.61098 85.4156 7.10374C85.6417 7.5965 85.7472 8.13645 85.7233 8.67851C85.7381 9.21406 85.6247 9.74534 85.3927 10.2277C85.1607 10.7102 84.8168 11.1296 84.39 11.4508C83.5011 12.1473 82.3411 12.4955 80.91 12.4955H61.0833V4.82137ZM84.4433 23.1428C83.59 23.8392 82.4167 24.1874 80.9233 24.1874H61.0833V16.4865H80.9233C82.4433 16.4865 83.6233 16.8348 84.4633 17.5312C84.8756 17.8701 85.2041 18.3005 85.4227 18.7886C85.6413 19.2766 85.7442 19.8089 85.7233 20.3437C85.7416 20.8781 85.6354 21.4095 85.4132 21.8954C85.1909 22.3814 84.8589 22.8085 84.4433 23.1428ZM114.48 16.7946H91.48V24.1874H118.083V28.5669H89.6834V0.441905H118.003V4.82137H91.48V12.5758H114.48V16.7946ZM152.16 0.441905L176.68 22.8247V0.441905H178.48V28.5669H176.8L152.28 6.18409V28.5669H150.48V0.441905H152.16ZM195.76 4.82137H208.84V0.441905H180.88V4.82137H193.96V24.1874H180.88V28.5669H208.88V24.1874H195.76V4.82137ZM2.93 51.0401C2.93 53.4509 4.5 54.8471 6.51333 54.8471C8.74 54.8471 9.92333 53.3538 10.26 51.5357L12.2267 52.3259C11.6367 54.9609 9.63333 56.8259 6.5 56.8259C2.94666 56.8259 0.723329 54.3348 0.723329 51.0401C0.705926 50.2741 0.843576 49.5126 1.12793 48.8016C1.41229 48.0907 1.83744 47.4451 2.37759 46.9041C2.91774 46.3631 3.56164 45.9379 4.27026 45.6544C4.97889 45.3708 5.73746 45.2347 6.5 45.2544C9.5 45.2544 11.2033 47.0223 11.6833 49.0145L9.7 49.8884C9.36666 48.3113 8.26 47.2098 6.48333 47.2098C4.5 47.2098 2.93 48.6763 2.93 51.0401ZM20.5 54.4453L18.7533 53.7556C18.6656 54.148 18.4401 54.4957 18.1182 54.7348C17.7962 54.974 17.3993 55.0887 17 55.058C15.9767 55.058 15.0333 54.4453 15 53.24H20.1633C20.2294 52.9342 20.2618 52.622 20.26 52.3092C20.26 50.2031 18.8367 48.8839 16.74 48.8839C14.4667 48.8839 12.9633 50.6384 12.9633 52.808C12.9633 55.2489 14.63 56.8259 16.9633 56.8259C18.7867 56.8259 19.9866 55.8917 20.5 54.4453ZM18.25 51.8739H15C15.0877 51.4836 15.3089 51.1366 15.6249 50.8932C15.941 50.6497 16.332 50.5252 16.73 50.5413C17.64 50.5413 18.2667 51.0402 18.2667 51.8103C18.2659 51.8325 18.2602 51.8542 18.25 51.8739ZM21.6034 56.6652V49.0447H23.6667V50.0491C23.9181 49.676 24.2599 49.3732 24.66 49.1694C25.06 48.9655 25.5051 48.8673 25.9534 48.8839C27.57 48.8839 28.69 49.8884 28.69 51.683V56.6652H26.6434V52.2322C26.6434 51.1708 26.0834 50.558 25.22 50.558C24.3567 50.558 23.6667 51.2277 23.6667 52.4531V56.6652H21.6034ZM31.0433 50.7455V54.0938C31.0433 55.731 32 56.8259 33.89 56.7991C35.5067 56.7991 36.5133 55.8516 36.7233 54.2746L34.8333 53.923C34.77 54.6462 34.4833 54.981 33.9367 54.981C33.8177 54.987 33.6988 54.967 33.5882 54.9225C33.4777 54.878 33.378 54.81 33.296 54.7232C33.214 54.6364 33.1516 54.5328 33.1132 54.4195C33.0748 54.3063 33.0612 54.186 33.0733 54.067V50.7188H35.9233V49.0446H33.0733V46.5402H31.0433V49.0714H29.4733V50.7455H31.0433ZM42.8667 53.7556L44.61 54.4453C44.1 55.8917 42.9 56.8259 41.0733 56.8259C38.74 56.8259 37.0733 55.2489 37.0733 52.808C37.0733 50.6384 38.58 48.8839 40.85 48.8839C42.9467 48.8839 44.37 50.2031 44.37 52.3092C44.3729 52.6219 44.3416 52.934 44.2767 53.24H39.1067C39.1367 54.4453 40.0833 55.058 41.1067 55.058C41.507 55.0904 41.9056 54.9764 42.229 54.7371C42.5523 54.4978 42.7788 54.1493 42.8667 53.7556ZM39.1067 51.8739H42.3533C42.358 51.8529 42.358 51.8312 42.3533 51.8103C42.3533 51.0402 41.73 50.5413 40.8167 50.5413C40.4218 50.5287 40.0348 50.6549 39.7227 50.8982C39.4105 51.1414 39.1926 51.4865 39.1067 51.8739ZM47.7633 50.0257V49.0446H45.7133V56.6652H47.7633V51.7634C47.7633 50.9899 48.18 50.558 48.82 50.558C48.9462 50.5514 49.0724 50.5713 49.1906 50.6164C49.3087 50.6615 49.4162 50.7308 49.5062 50.82C49.5962 50.9091 49.6668 51.0161 49.7133 51.1342C49.7599 51.2522 49.7814 51.3787 49.7767 51.5056C49.7794 51.7005 49.7582 51.8951 49.7133 52.0848H51.65C51.7263 51.7737 51.7643 51.4543 51.7633 51.1339C51.7633 49.8649 50.9933 48.8839 49.5866 48.8839C49.2033 48.8657 48.8235 48.9653 48.4978 49.1692C48.172 49.3732 47.9159 49.6719 47.7633 50.0257ZM57.1234 50.7322H55.52V49.0581H57.1234V48.0001C57.1234 46.2791 58.3067 45.2679 60.0034 45.2679C62.0034 45.2679 62.9134 46.326 62.9134 47.7423C62.9161 47.882 62.9105 48.0217 62.8967 48.1608H60.9767C61.0036 48.0605 61.0149 47.9565 61.01 47.8527C61.014 47.7323 60.9923 47.6123 60.9462 47.501C60.9002 47.3897 60.8309 47.2896 60.7431 47.2074C60.6553 47.1252 60.551 47.0629 60.4372 47.0247C60.3234 46.9864 60.2027 46.9731 60.0834 46.9856C59.9539 46.981 59.825 47.0044 59.7054 47.0542C59.5857 47.1041 59.4782 47.1792 59.39 47.2744C59.3018 47.3697 59.235 47.4829 59.1942 47.6064C59.1533 47.7298 59.1394 47.8607 59.1534 47.99V49.0648H61.1534V50.7389H59.1534V56.6719H57.1234V50.7322ZM62.4079 50.6345C61.9735 51.2926 61.7434 52.0653 61.7467 52.8549C61.7279 53.3826 61.8178 53.9085 62.0107 54.3997C62.2036 54.8908 62.4953 55.3368 62.8676 55.7095C63.24 56.0822 63.6849 56.3738 64.1746 56.5659C64.6642 56.758 65.1881 56.8465 65.7133 56.8259C66.4994 56.8265 67.2679 56.5928 67.9216 56.1543C68.5752 55.7157 69.0846 55.0922 69.3851 54.3626C69.6856 53.633 69.7637 52.8303 69.6095 52.056C69.4554 51.2818 69.0759 50.571 68.5191 50.0136C67.9624 49.4563 67.2534 49.0775 66.4821 48.9253C65.7109 48.773 64.9119 48.8542 64.1866 49.1585C63.4613 49.4628 62.8422 49.9765 62.4079 50.6345ZM65.7133 50.7321C66.8333 50.7321 67.6833 51.5692 67.6833 52.8549C67.6833 54.1406 66.8333 54.9776 65.7133 54.9776C64.5933 54.9776 63.7467 54.1406 63.7467 52.8549C63.7467 51.5692 64.5933 50.7321 65.7133 50.7321ZM72.93 49.0446V50.0257C73.0826 49.6719 73.3387 49.3732 73.6644 49.1692C73.9901 48.9653 74.3699 48.8657 74.7533 48.8839C76.1633 48.8839 76.93 49.8649 76.93 51.1339C76.931 51.4543 76.8929 51.7737 76.8167 52.0848H74.8833C74.9265 51.8948 74.9478 51.7004 74.9467 51.5056C74.9509 51.3797 74.9292 51.2543 74.8831 51.1372C74.837 51.0201 74.7673 50.9138 74.6785 50.8249C74.5897 50.7361 74.4836 50.6665 74.3669 50.6206C74.2502 50.5746 74.1253 50.5534 74 50.558C73.36 50.558 72.9433 50.9899 72.9433 51.7634V56.6652H70.8933V49.0446H72.93ZM2.28999 67.4866V70.8348C2.28999 72.4721 3.24999 73.567 5.14666 73.5402C6.76333 73.5402 7.77333 72.5926 7.97999 71.0156L6.09333 70.6641C6.02666 71.3873 5.73999 71.7221 5.19666 71.7221C5.07768 71.728 4.95883 71.7081 4.84824 71.6636C4.73766 71.6191 4.63795 71.5511 4.55596 71.4643C4.47397 71.3775 4.41163 71.2739 4.3732 71.1606C4.33477 71.0473 4.32117 70.9271 4.33333 70.808V67.4598H7.17999V65.7857H4.33333V63.2812H2.28999V65.8125H0.723328V67.4866H2.28999ZM8.89667 73.4063V62.1563H10.9467V67.1518C11.173 66.6806 11.5306 66.2854 11.9762 66.0144C12.4217 65.7434 12.936 65.6081 13.4567 65.625C15.22 65.625 16.2433 66.8003 16.2433 68.5212V73.4063H14.21V69C14.21 67.9554 13.65 67.3259 12.6567 67.3259C11.6633 67.3259 10.9467 68.0994 10.9467 69.4487V73.4029L8.89667 73.4063ZM25 71.1864L23.25 70.4967C23.1621 70.8903 22.9356 71.2389 22.6123 71.4782C22.2889 71.7175 21.8904 71.8315 21.49 71.7991C20.4667 71.7991 19.5233 71.1864 19.49 69.981H24.6633C24.7294 69.6752 24.7618 69.3631 24.76 69.0502C24.76 66.9442 23.3333 65.625 21.2367 65.625C18.9667 65.625 17.4633 67.3795 17.4633 69.5491C17.4633 71.99 19.13 73.567 21.4633 73.567C23.29 73.567 24.49 72.6328 25 71.1864ZM22.7367 68.615H19.49C19.5776 68.2253 19.7983 67.8787 20.1136 67.6353C20.429 67.3919 20.8192 67.2671 21.2167 67.2824C22.13 67.2824 22.7533 67.7812 22.7533 68.5513C22.7526 68.5735 22.7469 68.5953 22.7367 68.615ZM33.25 62.1563H36.3067L40.8034 73.4063H38.4167L37.4434 70.865H32.11L31.15 73.4063H28.75L33.25 62.1563ZM36.7067 68.9063L34.77 63.884L32.85 68.9063H36.7067ZM43.6667 66.7667V65.7856H41.6333V73.4062H43.68V68.5044C43.68 67.731 44.0967 67.299 44.7367 67.299C44.8632 67.292 44.9897 67.3115 45.1083 67.3564C45.2268 67.4013 45.3348 67.4705 45.4251 67.5597C45.5155 67.6489 45.5863 67.7561 45.6331 67.8744C45.6798 67.9926 45.7015 68.1194 45.6967 68.2466C45.6978 68.4415 45.6765 68.6358 45.6333 68.8258H47.5567C47.6329 68.5147 47.671 68.1954 47.67 67.8749C47.67 66.606 46.9 65.6249 45.4933 65.6249C45.1096 65.607 44.7294 65.7066 44.4032 65.9105C44.077 66.1144 43.8202 66.4129 43.6667 66.7667ZM49.7133 70.8348V67.4866H48.1467V65.8125H49.7133V63.2812H51.7467V65.7857H54.5933V67.4598H51.7467V70.808C51.7345 70.9271 51.7481 71.0473 51.7865 71.1606C51.825 71.2739 51.8873 71.3775 51.9693 71.4643C52.0513 71.5511 52.151 71.6191 52.2616 71.6636C52.3722 71.7081 52.491 71.728 52.61 71.7221C53.1533 71.7221 53.44 71.3873 53.5067 70.6641L55.3933 71.0156C55.1867 72.5926 54.1767 73.5402 52.56 73.5402C50.6667 73.567 49.7133 72.4721 49.7133 70.8348ZM57.4267 70.6741L55.8267 71.5246C56.3533 72.7935 57.43 73.5737 59.2533 73.5737C61.0767 73.5737 62.4533 72.5592 62.4533 71.1127C62.4533 69.7969 61.7467 69.0234 59.7467 68.7188C58.48 68.5279 58.08 68.3337 58.08 67.8817C58.08 67.4833 58.5467 67.2121 59.1534 67.2121C59.4328 67.1905 59.7112 67.2645 59.9436 67.4219C60.1759 67.5793 60.3485 67.8109 60.4333 68.0792L61.9867 67.2254C61.57 66.3114 60.8033 65.6183 59.1067 65.6183C57.57 65.6183 56.21 66.5223 56.21 67.8549C56.21 69.1875 57.2333 69.894 58.8 70.135C60.2267 70.3527 60.56 70.6239 60.56 71.1395C60.56 71.5446 60.1467 71.8795 59.33 71.8795C58.927 71.9042 58.5265 71.8011 58.185 71.5849C57.8435 71.3686 57.5782 71.05 57.4267 70.6741Z"/>
</svg>
