<svg width="241" height="30" viewBox="0 0 241 30" xmlns="http://www.w3.org/2000/svg">
<title>Lubeznik Center for the Arts</title>
<path fill-rule="evenodd" clip-rule="evenodd" d="M240.652 0.192383V4.98439L214.276 13.8134V15.6188L240.652 24.7162V29.5082L214.276 20.2564V28.8236H212.464V0.635342H214.276V9.17573L240.652 0.192383ZM120.936 4.98441H145.507L120.651 24.7565V28.8237H148.839V24.4343H123.886L148.839 4.58172V0.595084H120.936V4.98441ZM0.652344 0.635341H2.46445V24.3538H27.2299V28.8236H2.46445H0.652344V24.3538V0.635341ZM51.7738 23.0048C54.0692 21.7296 55.2168 19.5484 55.2168 16.4611V0.635341H57.0289V18.1524C57.0245 21.8303 55.794 24.6155 53.3376 26.5082C50.8812 28.4008 47.3979 29.3471 42.8878 29.3471C38.3821 29.3471 34.9145 28.4008 32.485 26.5082C30.0554 24.6155 28.8406 21.8303 28.8406 18.1524V0.635341H30.6527V16.4611C30.6527 19.5484 31.7937 21.7296 34.0756 23.0048C36.3575 24.28 39.2972 24.9176 42.8945 24.9176C46.5187 24.9176 49.4785 24.28 51.7738 23.0048ZM85.6702 16.2396C84.1737 15.4004 82.5094 14.9041 80.7977 14.7865C81.7419 14.6922 82.6733 14.4976 83.5763 14.206C84.8595 13.8091 85.9906 13.0293 86.8179 11.9711C87.6099 10.9375 88.0058 9.58848 88.0058 7.92403C88.0058 5.68686 87.2609 3.91503 85.7709 2.60852C84.281 1.30202 82.1557 0.64429 79.395 0.635341H59.4618V28.8236H79.395C82.2675 28.8236 84.4622 28.2129 85.979 26.9914C87.4958 25.7699 88.2542 23.9242 88.2542 21.4544C88.243 19.0114 87.3817 17.2732 85.6702 16.2396ZM61.2572 5.02466H81.2306C82.7071 5.02466 83.8816 5.36695 84.7541 6.05152C85.1829 6.38606 85.5254 6.8183 85.753 7.31217C85.9807 7.80604 86.087 8.3472 86.0629 8.89049C86.0778 9.42723 85.9636 9.95972 85.73 10.4432C85.4965 10.9267 85.1503 11.3471 84.7206 11.669C83.8257 12.367 82.6579 12.716 81.2172 12.716H61.2572V5.02466ZM84.7743 23.3873C83.9152 24.0853 82.734 24.4343 81.2306 24.4343H61.2572V16.7161H81.2306C82.7608 16.7161 83.9487 17.0651 84.7944 17.7631C85.2095 18.1028 85.5401 18.5342 85.7602 19.0233C85.9803 19.5124 86.0839 20.046 86.0629 20.5819C86.0813 21.1176 85.9743 21.6501 85.7506 22.1371C85.5269 22.6242 85.1926 23.0523 84.7743 23.3873ZM115.013 17.0248H91.8584V24.4343H118.641V28.8236H91.8584H90.4523H90.0496V0.635341H90.4523H91.8584H118.56V5.02466H91.8584V12.7966H115.013V17.0248ZM152.946 0.635341L177.631 23.0685V0.635341H179.443V28.8236H177.752L153.067 6.39045V28.8236H151.255V0.635341H152.946ZM196.84 5.02466H210.008V0.635341H196.84H195.028H181.86V5.02466H195.028V24.4343H181.86V28.8236H195.028H196.84H210.048V24.4343H196.84V5.02466Z"/>
</svg>
