<svg width="1441" height="1281" viewBox="0 0 1441 1281" xmlns="http://www.w3.org/2000/svg" preserveAspectRatio="xMaxYMin meet">
<path fill-rule="evenodd" clip-rule="evenodd" d="M241.959 1280.9C595.421 1280.9 881.959 994.362 881.959 640.9C881.959 287.438 595.421 0.899902 241.959 0.899902C156.345 0.899902 74.6565 17.7108 0.015625 48.2117V1233.59C74.6565 1264.09 156.345 1280.9 241.959 1280.9ZM470.757 905.868C608.09 905.868 719.419 794.538 719.419 657.206C719.419 519.873 608.09 408.543 470.757 408.543C333.425 408.543 222.095 519.873 222.095 657.206C222.095 794.538 333.425 905.868 470.757 905.868Z"/>
<path d="M1440.02 224.587C1218.64 244.287 1044.5 430.799 1044.5 657.205C1045.17 883.574 1219.29 1070.06 1440.02 1089.81V834.399C1358.66 816.542 1297.45 743.793 1297.45 657.205C1297.45 570.618 1358.66 497.869 1440.02 480.012V224.587Z"/>
</svg>
