<svg width="1441" height="1278" viewBox="0 0 1441 1278" xmlns="http://www.w3.org/2000/svg" preserveAspectRatio="xMaxYMin meet">
<path d="M0.413086 1277.92V404.518C16.4584 384.716 34.4525 364.612 54.7755 344.789C145.784 256.018 256.721 199.749 384.684 177.186C512.646 154.623 636.138 169.556 752.019 221.846C809.96 247.991 857.409 279.449 896.146 308.634C922.566 267.96 956.394 222.171 1001.9 177.785C1092.91 89.015 1203.84 32.7458 1331.81 10.1825C1368.4 3.73027 1404.63 0.34426 1440.41 0.0134277V847.806C1419.64 875.842 1395.15 905.042 1365.82 933.659C1274.81 1022.43 1163.87 1078.7 1035.91 1101.26C907.946 1123.82 784.454 1108.89 668.572 1056.6C610.632 1030.46 563.182 998.998 524.445 969.814C498.026 1010.49 464.197 1056.28 418.693 1100.66C327.685 1189.43 216.748 1245.7 88.7851 1268.27C59.0734 1273.5 29.6027 1276.72 0.413086 1277.92Z"/>
</svg>
