<svg width="18" height="16" viewBox="0 0 18 16" fill="none" xmlns="http://www.w3.org/2000/svg">
<path d="M16.1367 4.36328C16.1602 4.45703 16.1719 4.60938 16.1719 4.82031C16.1719 6.0625 15.9375 7.30469 15.4688 8.54688C15 9.76562 14.332 10.8906 13.4648 11.9219C12.6211 12.9297 11.5195 13.75 10.1602 14.3828C8.80078 15.0156 7.30078 15.332 5.66016 15.332C3.59766 15.332 1.71094 14.7812 0 13.6797C0.257812 13.7031 0.550781 13.7148 0.878906 13.7148C2.58984 13.7148 4.125 13.1875 5.48438 12.1328C4.66406 12.1328 3.9375 11.8984 3.30469 11.4297C2.69531 10.9375 2.27344 10.3281 2.03906 9.60156C2.27344 9.625 2.49609 9.63672 2.70703 9.63672C3.03516 9.63672 3.36328 9.60156 3.69141 9.53125C3.12891 9.41406 2.625 9.17969 2.17969 8.82812C1.73438 8.47656 1.38281 8.05469 1.125 7.5625C0.867188 7.04688 0.738281 6.49609 0.738281 5.91016V5.83984C1.25391 6.14453 1.80469 6.30859 2.39062 6.33203C1.28906 5.58203 0.738281 4.55078 0.738281 3.23828C0.738281 2.58203 0.914062 1.96094 1.26562 1.375C2.17969 2.52344 3.29297 3.4375 4.60547 4.11719C5.94141 4.79688 7.35938 5.17188 8.85938 5.24219C8.8125 4.96094 8.78906 4.67969 8.78906 4.39844C8.78906 3.39062 9.14062 2.52344 9.84375 1.79688C10.5703 1.07031 11.4375 0.707031 12.4453 0.707031C13.5234 0.707031 14.4258 1.09375 15.1523 1.86719C15.9961 1.70312 16.7812 1.41016 17.5078 0.988281C17.2266 1.85547 16.6875 2.53516 15.8906 3.02734C16.5938 2.93359 17.2969 2.73438 18 2.42969C17.4844 3.17969 16.8633 3.82422 16.1367 4.36328Z" fill="#2B2C2A"/>
</svg>
